<mxfile host="app.diagrams.net" modified="2023-12-29T18:19:14.934Z" agent="Mozilla/5.0 (Windows NT 10.0; Win64; x64) AppleWebKit/537.36 (KHTML, like Gecko) Chrome/119.0.0.0 Safari/537.36 OPR/105.0.0.0" etag="XwTjn_oEzU8El6JZqplB" version="21.8.1" type="github">
  <diagram name="Страница — 1" id="zd8YWSFWXGjOLk6FFMRj">
    <mxGraphModel dx="1190" dy="661" grid="1" gridSize="10" guides="1" tooltips="1" connect="1" arrows="1" fold="1" page="1" pageScale="1" pageWidth="827" pageHeight="1169" math="0" shadow="0">
      <root>
        <mxCell id="0" />
        <mxCell id="1" parent="0" />
        <mxCell id="B0J61wz38na9YRQxl5fk-16" value="" style="edgeStyle=orthogonalEdgeStyle;rounded=0;orthogonalLoop=1;jettySize=auto;html=1;" edge="1" parent="1" source="B0J61wz38na9YRQxl5fk-1" target="B0J61wz38na9YRQxl5fk-4">
          <mxGeometry relative="1" as="geometry" />
        </mxCell>
        <mxCell id="B0J61wz38na9YRQxl5fk-1" value="Задача" style="ellipse;whiteSpace=wrap;html=1;" vertex="1" parent="1">
          <mxGeometry x="340" y="60" width="120" height="80" as="geometry" />
        </mxCell>
        <mxCell id="B0J61wz38na9YRQxl5fk-17" value="" style="edgeStyle=orthogonalEdgeStyle;rounded=0;orthogonalLoop=1;jettySize=auto;html=1;" edge="1" parent="1" source="B0J61wz38na9YRQxl5fk-4" target="B0J61wz38na9YRQxl5fk-11">
          <mxGeometry relative="1" as="geometry" />
        </mxCell>
        <mxCell id="B0J61wz38na9YRQxl5fk-4" value="Ввод элементов массива пользователем, int len, int index" style="shape=parallelogram;perimeter=parallelogramPerimeter;whiteSpace=wrap;html=1;fixedSize=1;" vertex="1" parent="1">
          <mxGeometry x="297.5" y="170" width="205" height="90" as="geometry" />
        </mxCell>
        <mxCell id="B0J61wz38na9YRQxl5fk-24" value="" style="edgeStyle=orthogonalEdgeStyle;rounded=0;orthogonalLoop=1;jettySize=auto;html=1;" edge="1" parent="1" source="B0J61wz38na9YRQxl5fk-9" target="B0J61wz38na9YRQxl5fk-13">
          <mxGeometry relative="1" as="geometry" />
        </mxCell>
        <mxCell id="B0J61wz38na9YRQxl5fk-28" value="" style="edgeStyle=orthogonalEdgeStyle;rounded=0;orthogonalLoop=1;jettySize=auto;html=1;" edge="1" parent="1" source="B0J61wz38na9YRQxl5fk-9" target="B0J61wz38na9YRQxl5fk-27">
          <mxGeometry relative="1" as="geometry" />
        </mxCell>
        <mxCell id="B0J61wz38na9YRQxl5fk-9" value="i = array[ i ], array.length, 1" style="shape=hexagon;perimeter=hexagonPerimeter2;whiteSpace=wrap;html=1;fixedSize=1;" vertex="1" parent="1">
          <mxGeometry x="340" y="720" width="120" height="80" as="geometry" />
        </mxCell>
        <mxCell id="B0J61wz38na9YRQxl5fk-19" value="" style="edgeStyle=orthogonalEdgeStyle;rounded=0;orthogonalLoop=1;jettySize=auto;html=1;" edge="1" parent="1" source="B0J61wz38na9YRQxl5fk-10" target="B0J61wz38na9YRQxl5fk-12">
          <mxGeometry relative="1" as="geometry" />
        </mxCell>
        <mxCell id="B0J61wz38na9YRQxl5fk-10" value="if&amp;nbsp; array[ i ].Length &amp;lt;= 3" style="rhombus;whiteSpace=wrap;html=1;" vertex="1" parent="1">
          <mxGeometry x="320" y="390" width="160" height="100" as="geometry" />
        </mxCell>
        <mxCell id="B0J61wz38na9YRQxl5fk-18" value="" style="edgeStyle=orthogonalEdgeStyle;rounded=0;orthogonalLoop=1;jettySize=auto;html=1;" edge="1" parent="1" source="B0J61wz38na9YRQxl5fk-11" target="B0J61wz38na9YRQxl5fk-10">
          <mxGeometry relative="1" as="geometry" />
        </mxCell>
        <mxCell id="B0J61wz38na9YRQxl5fk-22" style="edgeStyle=orthogonalEdgeStyle;rounded=0;orthogonalLoop=1;jettySize=auto;html=1;" edge="1" parent="1" source="B0J61wz38na9YRQxl5fk-11" target="B0J61wz38na9YRQxl5fk-15">
          <mxGeometry relative="1" as="geometry">
            <Array as="points">
              <mxPoint x="580" y="320.0000000000001" />
              <mxPoint x="580" y="640" />
            </Array>
          </mxGeometry>
        </mxCell>
        <mxCell id="B0J61wz38na9YRQxl5fk-11" value="i = array[ i ], array.length, 1" style="shape=hexagon;perimeter=hexagonPerimeter2;whiteSpace=wrap;html=1;fixedSize=1;" vertex="1" parent="1">
          <mxGeometry x="340" y="280" width="120" height="80" as="geometry" />
        </mxCell>
        <mxCell id="B0J61wz38na9YRQxl5fk-20" style="edgeStyle=orthogonalEdgeStyle;rounded=0;orthogonalLoop=1;jettySize=auto;html=1;entryX=0;entryY=0.5;entryDx=0;entryDy=0;" edge="1" parent="1" source="B0J61wz38na9YRQxl5fk-12" target="B0J61wz38na9YRQxl5fk-11">
          <mxGeometry relative="1" as="geometry">
            <mxPoint x="160" y="310" as="targetPoint" />
            <Array as="points">
              <mxPoint x="200" y="550" />
              <mxPoint x="200" y="320" />
            </Array>
          </mxGeometry>
        </mxCell>
        <mxCell id="B0J61wz38na9YRQxl5fk-12" value="len++" style="rounded=0;whiteSpace=wrap;html=1;" vertex="1" parent="1">
          <mxGeometry x="340" y="520" width="120" height="60" as="geometry" />
        </mxCell>
        <mxCell id="B0J61wz38na9YRQxl5fk-25" value="" style="edgeStyle=orthogonalEdgeStyle;rounded=0;orthogonalLoop=1;jettySize=auto;html=1;" edge="1" parent="1" source="B0J61wz38na9YRQxl5fk-13" target="B0J61wz38na9YRQxl5fk-14">
          <mxGeometry relative="1" as="geometry" />
        </mxCell>
        <mxCell id="B0J61wz38na9YRQxl5fk-13" value="if&amp;nbsp; array[ i ].Length &amp;lt;= 3" style="rhombus;whiteSpace=wrap;html=1;" vertex="1" parent="1">
          <mxGeometry x="320" y="820" width="160" height="100" as="geometry" />
        </mxCell>
        <mxCell id="B0J61wz38na9YRQxl5fk-26" style="edgeStyle=orthogonalEdgeStyle;rounded=0;orthogonalLoop=1;jettySize=auto;html=1;entryX=0;entryY=0.5;entryDx=0;entryDy=0;" edge="1" parent="1" source="B0J61wz38na9YRQxl5fk-14" target="B0J61wz38na9YRQxl5fk-9">
          <mxGeometry relative="1" as="geometry">
            <Array as="points">
              <mxPoint x="200" y="980" />
              <mxPoint x="200" y="760" />
            </Array>
          </mxGeometry>
        </mxCell>
        <mxCell id="B0J61wz38na9YRQxl5fk-14" value="resultArray[index] = inputArray[i]&lt;br&gt;index++&amp;nbsp;" style="rounded=0;whiteSpace=wrap;html=1;" vertex="1" parent="1">
          <mxGeometry x="340" y="950" width="120" height="60" as="geometry" />
        </mxCell>
        <mxCell id="B0J61wz38na9YRQxl5fk-23" style="edgeStyle=orthogonalEdgeStyle;rounded=0;orthogonalLoop=1;jettySize=auto;html=1;entryX=0.5;entryY=0;entryDx=0;entryDy=0;" edge="1" parent="1" source="B0J61wz38na9YRQxl5fk-15" target="B0J61wz38na9YRQxl5fk-9">
          <mxGeometry relative="1" as="geometry" />
        </mxCell>
        <mxCell id="B0J61wz38na9YRQxl5fk-15" value="создание пустого финального массива" style="shape=parallelogram;perimeter=parallelogramPerimeter;whiteSpace=wrap;html=1;fixedSize=1;" vertex="1" parent="1">
          <mxGeometry x="325" y="610" width="150" height="60" as="geometry" />
        </mxCell>
        <mxCell id="B0J61wz38na9YRQxl5fk-27" value="Console.writeline(resultArray)&lt;br&gt;END" style="whiteSpace=wrap;html=1;" vertex="1" parent="1">
          <mxGeometry x="540" y="730" width="170" height="60" as="geometry" />
        </mxCell>
      </root>
    </mxGraphModel>
  </diagram>
</mxfile>
